<svg width="589" height="167" viewBox="0 0 589 167" fill="none" xmlns="http://www.w3.org/2000/svg">
<rect y="19" width="169" height="148" rx="5" fill="black"/>
<rect x="54" y="63" width="61" height="61" rx="5" fill="white"/>
<path d="M236.552 124V60.448H249.288L250.504 72.416L246.536 68.64C249.608 65.6107 252.936 63.3067 256.52 61.728C260.147 60.1493 264.093 59.36 268.36 59.36C276.893 59.36 283.144 62.048 287.112 67.424C291.08 72.8 293.064 79.904 293.064 88.736V124H278.792V89.504C278.792 83.2747 277.704 78.7093 275.528 75.808C273.352 72.864 269.768 71.392 264.776 71.392C260.893 71.392 257.587 72.288 254.856 74.08C252.125 75.872 249.992 78.4533 248.456 81.824L250.824 74.272V124H236.552ZM326.816 125.28C323.232 125.28 320.011 124.512 317.152 122.976C314.293 121.44 312.032 119.264 310.368 116.448C308.747 113.632 307.936 110.304 307.936 106.464C307.936 102.88 308.747 99.808 310.368 97.248C312.032 94.6453 314.208 92.4907 316.896 90.784C319.627 89.0773 322.592 87.7333 325.792 86.752C329.035 85.728 332.277 84.9813 335.52 84.512C338.805 84.0427 341.792 83.7867 344.48 83.744C344.352 79.2213 343.307 76.1067 341.344 74.4C339.424 72.6507 336.373 71.776 332.192 71.776C329.504 71.776 326.816 72.16 324.128 72.928C321.44 73.696 318.389 75.04 314.976 76.96L313.504 65.312C316.875 63.4347 320.459 61.984 324.256 60.96C328.096 59.8933 332.021 59.36 336.032 59.36C341.024 59.36 345.205 60.2347 348.576 61.984C351.947 63.7333 354.485 66.6133 356.192 70.624C357.941 74.6347 358.816 79.9893 358.816 86.688V102.304C358.816 105.419 358.965 107.787 359.264 109.408C359.563 111.029 360.139 112.139 360.992 112.736C361.888 113.333 363.232 113.632 365.024 113.632H366.752L365.216 125.28H361.248C358.347 125.28 355.936 124.939 354.016 124.256C352.096 123.616 350.517 122.699 349.28 121.504C348.085 120.309 347.061 118.88 346.208 117.216C344.032 119.691 341.216 121.653 337.76 123.104C334.347 124.555 330.699 125.28 326.816 125.28ZM331.808 114.208C333.813 114.208 336.011 113.696 338.4 112.672C340.789 111.605 342.837 110.112 344.544 108.192V93.472C340.448 93.6 336.757 94.1333 333.472 95.072C330.187 95.968 327.584 97.312 325.664 99.104C323.787 100.853 322.848 103.093 322.848 105.824C322.848 108.683 323.595 110.795 325.088 112.16C326.624 113.525 328.864 114.208 331.808 114.208ZM400.726 125.28C396.715 125.28 393.473 124.491 390.998 122.912C388.523 121.333 386.71 119.328 385.558 116.896C384.406 114.421 383.83 111.84 383.83 109.152V72.032H374.102L375.382 60.448H383.83V45.856L398.102 44.384V60.448H413.078V72.032H398.102V102.432C398.102 105.973 398.315 108.533 398.742 110.112C399.169 111.648 400.15 112.629 401.686 113.056C403.222 113.44 405.697 113.632 409.11 113.632H412.95L411.734 125.28H400.726ZM428.412 124V60.448H442.684V124H428.412ZM428.412 49.184V34.4H442.684V49.184H428.412ZM480.504 124L456.12 60.448H470.712L487.16 106.848L503.48 60.448H518.136L493.816 124H480.504ZM560.869 125.28C553.274 125.28 546.917 123.744 541.797 120.672C536.72 117.6 532.88 113.547 530.277 108.512C527.717 103.435 526.437 97.8667 526.437 91.808C526.437 85.9627 527.632 80.5867 530.021 75.68C532.453 70.7307 535.973 66.784 540.581 63.84C545.232 60.8533 550.864 59.36 557.477 59.36C563.28 59.36 568.229 60.5333 572.325 62.88C576.421 65.2267 579.536 68.4693 581.669 72.608C583.845 76.704 584.933 81.3973 584.933 86.688C584.933 87.8827 584.848 89.1413 584.677 90.464C584.549 91.744 584.357 93.0667 584.101 94.432H541.221C541.818 99.0827 543.12 102.773 545.125 105.504C547.13 108.235 549.626 110.219 552.613 111.456C555.6 112.651 558.821 113.248 562.277 113.248C565.69 113.248 568.976 112.843 572.133 112.032C575.333 111.179 578.298 110.027 581.029 108.576L582.117 120.416C579.685 121.611 576.677 122.72 573.093 123.744C569.509 124.768 565.434 125.28 560.869 125.28ZM541.861 84.704H570.341C570.341 82.4 569.893 80.2453 568.997 78.24C568.144 76.192 566.757 74.5493 564.837 73.312C562.96 72.032 560.485 71.392 557.413 71.392C552.933 71.392 549.434 72.608 546.917 75.04C544.442 77.472 542.757 80.6933 541.861 84.704Z" fill="black"/>
</svg>
